<svg width="400" height="600" viewBox="0 0 400 600" fill="none" xmlns="http://www.w3.org/2000/svg">
<g clip-path="url(#clip0)">
<path opacity="0.1" d="M129.019 145.808C140.657 135.457 158.924 133.336 175.554 134.16C227.783 136.755 274.928 161.946 315.71 190.445C330.475 200.759 345.01 211.878 354.592 226.086C374.114 255.007 368.313 295.07 341.189 318.896C331.957 327.001 320.77 333.227 309.283 338.724C288.86 348.517 266.824 356.379 243.644 358.629C227.118 360.221 210.384 358.927 193.949 356.702C148.04 350.468 102.982 336.71 65.2004 313.175C48.6342 302.853 33.0201 290.018 26.1912 273.327C19.3624 256.635 23.733 235.457 40.6498 225.556C47.6461 221.468 56.0129 219.621 64.2004 217.885C76.2565 215.333 88.5039 212.818 99.3807 207.63C110.62 202.272 123.923 191.91 121.692 180.047C119.318 167.336 117.397 156.158 129.019 145.808Z" fill="#37474F"/>
<path d="M272.896 400.275C272.896 400.275 282.881 382.604 297.913 377.513C304.233 375.417 309.702 371.33 313.499 365.865C315.282 363.257 316.821 360.49 318.097 357.601" stroke="#535461" stroke-width="2" stroke-miterlimit="10"/>
<path d="M327.555 354.332C325.842 355.996 317.861 357.712 317.861 357.712C317.861 357.712 319.818 349.794 321.531 348.134C322.353 347.336 323.46 346.897 324.606 346.914C325.753 346.93 326.846 347.402 327.644 348.223C328.443 349.045 328.883 350.151 328.866 351.296C328.849 352.442 328.377 353.534 327.555 354.332V354.332Z" fill="#37474F"/>
<path d="M323.042 368.66C320.7 369.125 313.082 366.235 313.082 366.235C313.082 366.235 319.034 360.662 321.373 360.184C322.498 359.961 323.665 360.193 324.619 360.83C325.572 361.467 326.233 362.456 326.457 363.58C326.68 364.704 326.448 365.871 325.811 366.823C325.173 367.776 324.183 368.436 323.058 368.66H323.042Z" fill="#37474F"/>
<path d="M306.607 384.161C304.348 383.365 299.221 377.036 299.221 377.036C299.221 377.036 307.189 375.22 309.436 376C309.984 376.177 310.491 376.461 310.928 376.835C311.365 377.21 311.723 377.668 311.98 378.183C312.237 378.698 312.388 379.258 312.426 379.832C312.463 380.406 312.385 380.982 312.197 381.526C312.008 382.069 311.713 382.57 311.329 382.998C310.944 383.426 310.478 383.773 309.957 384.018C309.436 384.264 308.872 384.403 308.297 384.427C307.721 384.452 307.147 384.361 306.607 384.161V384.161Z" fill="#37474F"/>
<path d="M291.527 393.095C289.173 392.697 283.045 387.318 283.045 387.318C283.045 387.318 290.579 384.182 292.934 384.572C293.498 384.659 294.039 384.858 294.526 385.155C295.014 385.453 295.437 385.845 295.772 386.307C296.107 386.769 296.347 387.293 296.478 387.848C296.609 388.404 296.628 388.979 296.536 389.542C296.443 390.105 296.239 390.644 295.936 391.128C295.634 391.612 295.238 392.031 294.773 392.362C294.307 392.692 293.78 392.927 293.223 393.053C292.666 393.179 292.09 393.193 291.527 393.095V393.095Z" fill="#37474F"/>
<path d="M306.412 360.05C306.412 362.438 310.731 369.353 310.731 369.353C310.731 369.353 315.058 362.438 315.058 360.054C315.058 358.908 314.602 357.809 313.792 356.999C312.981 356.189 311.881 355.734 310.735 355.734C309.588 355.734 308.489 356.189 307.678 356.999C306.868 357.809 306.412 358.908 306.412 360.054V360.05Z" fill="#37474F"/>
<path d="M288.909 370.718C289.626 372.995 295.817 378.306 295.817 378.306C295.817 378.306 297.873 370.412 297.16 368.135C296.817 367.041 296.054 366.129 295.037 365.598C294.021 365.067 292.836 364.962 291.742 365.304C290.647 365.647 289.734 366.41 289.203 367.425C288.672 368.44 288.566 369.625 288.909 370.718V370.718Z" fill="#37474F"/>
<path d="M273.322 383.417C273.64 385.781 278.848 392.063 278.848 392.063C278.848 392.063 282.21 384.631 281.892 382.266C281.739 381.131 281.141 380.102 280.23 379.407C279.318 378.712 278.167 378.407 277.031 378.56C275.895 378.713 274.865 379.31 274.17 380.221C273.474 381.132 273.169 382.281 273.322 383.417Z" fill="#37474F"/>
<path opacity="0.25" d="M327.555 354.332C325.842 355.996 317.861 357.712 317.861 357.712C317.861 357.712 319.818 349.794 321.531 348.134C322.353 347.336 323.46 346.897 324.606 346.914C325.753 346.93 326.846 347.402 327.644 348.223C328.443 349.045 328.883 350.151 328.866 351.296C328.849 352.442 328.377 353.534 327.555 354.332V354.332Z" fill="black"/>
<path opacity="0.25" d="M323.042 368.66C320.7 369.125 313.082 366.235 313.082 366.235C313.082 366.235 319.034 360.662 321.373 360.184C322.498 359.961 323.665 360.193 324.619 360.83C325.572 361.467 326.233 362.456 326.457 363.58C326.68 364.704 326.448 365.871 325.811 366.823C325.173 367.776 324.183 368.436 323.058 368.66H323.042Z" fill="black"/>
<path opacity="0.25" d="M306.607 384.161C304.348 383.365 299.221 377.036 299.221 377.036C299.221 377.036 307.189 375.22 309.436 376C309.984 376.177 310.491 376.461 310.928 376.835C311.365 377.21 311.723 377.668 311.98 378.183C312.237 378.698 312.388 379.258 312.426 379.832C312.463 380.406 312.385 380.982 312.197 381.526C312.008 382.069 311.713 382.57 311.329 382.998C310.944 383.426 310.478 383.773 309.957 384.018C309.436 384.264 308.872 384.403 308.297 384.427C307.721 384.452 307.147 384.361 306.607 384.161V384.161Z" fill="black"/>
<path opacity="0.25" d="M291.527 393.095C289.173 392.697 283.045 387.318 283.045 387.318C283.045 387.318 290.579 384.182 292.934 384.572C293.498 384.659 294.039 384.858 294.526 385.155C295.014 385.453 295.437 385.845 295.772 386.307C296.107 386.769 296.347 387.293 296.478 387.848C296.609 388.404 296.628 388.979 296.536 389.542C296.443 390.105 296.239 390.644 295.936 391.128C295.634 391.612 295.238 392.031 294.773 392.362C294.307 392.692 293.78 392.927 293.223 393.053C292.666 393.179 292.09 393.193 291.527 393.095V393.095Z" fill="black"/>
<path opacity="0.25" d="M306.412 360.05C306.412 362.438 310.731 369.353 310.731 369.353C310.731 369.353 315.058 362.438 315.058 360.054C315.058 358.908 314.602 357.809 313.792 356.999C312.981 356.189 311.881 355.734 310.735 355.734C309.588 355.734 308.489 356.189 307.678 356.999C306.868 357.809 306.412 358.908 306.412 360.054V360.05Z" fill="black"/>
<path opacity="0.25" d="M288.909 370.718C289.626 372.995 295.817 378.306 295.817 378.306C295.817 378.306 297.873 370.412 297.16 368.135C296.817 367.041 296.054 366.129 295.037 365.598C294.021 365.067 292.836 364.962 291.742 365.304C290.647 365.647 289.734 366.41 289.203 367.425C288.672 368.44 288.566 369.625 288.909 370.718V370.718Z" fill="black"/>
<path opacity="0.25" d="M273.322 383.417C273.64 385.781 278.848 392.063 278.848 392.063C278.848 392.063 282.21 384.631 281.892 382.266C281.739 381.131 281.141 380.102 280.23 379.407C279.318 378.712 278.167 378.407 277.031 378.56C275.895 378.713 274.865 379.31 274.17 380.221C273.474 381.132 273.169 382.281 273.322 383.417Z" fill="black"/>
<path d="M273.471 399.917C273.471 399.917 275.431 379.718 287.113 368.978C292.04 364.502 295.381 358.55 296.635 352.015C297.208 348.907 297.494 345.753 297.487 342.593" stroke="#535461" stroke-width="2" stroke-miterlimit="10"/>
<path d="M304.807 335.794C303.915 338.007 297.317 342.808 297.317 342.808C297.317 342.808 295.898 334.775 296.791 332.565C296.993 332.026 297.301 331.531 297.697 331.112C298.093 330.693 298.569 330.358 299.097 330.125C299.625 329.893 300.195 329.768 300.771 329.759C301.348 329.75 301.921 329.856 302.456 330.072C302.991 330.287 303.478 330.608 303.887 331.014C304.296 331.42 304.62 331.904 304.839 332.438C305.058 332.971 305.168 333.543 305.163 334.119C305.157 334.695 305.036 335.265 304.807 335.794V335.794Z" fill="#37474F"/>
<path d="M306.491 350.718C304.538 352.092 296.387 352.538 296.387 352.538C296.387 352.538 299.574 345.026 301.514 343.652C301.979 343.326 302.503 343.094 303.057 342.97C303.611 342.846 304.184 342.832 304.743 342.929C305.303 343.026 305.838 343.233 306.317 343.536C306.797 343.84 307.212 344.235 307.538 344.699C307.865 345.163 308.097 345.687 308.222 346.24C308.346 346.794 308.36 347.367 308.262 347.926C308.165 348.485 307.958 349.019 307.654 349.498C307.35 349.977 306.955 350.392 306.491 350.718Z" fill="#37474F"/>
<path d="M297.753 371.546C295.363 371.745 288.111 368.019 288.111 368.019C288.111 368.019 294.649 363.138 297.012 362.935C298.155 362.839 299.289 363.201 300.165 363.94C301.041 364.679 301.587 365.736 301.683 366.878C301.78 368.02 301.418 369.153 300.678 370.029C299.938 370.904 298.88 371.45 297.737 371.546H297.753Z" fill="#37474F"/>
<path d="M287.59 385.818C285.279 386.415 277.494 383.971 277.494 383.971C277.494 383.971 283.108 378.051 285.419 377.454C285.972 377.299 286.551 377.255 287.122 377.326C287.692 377.397 288.243 377.581 288.741 377.867C289.24 378.153 289.676 378.536 290.025 378.993C290.374 379.449 290.628 379.971 290.772 380.527C290.917 381.083 290.948 381.663 290.866 382.231C290.784 382.8 290.589 383.346 290.292 383.838C289.996 384.331 289.604 384.759 289.14 385.098C288.676 385.437 288.149 385.681 287.59 385.814V385.818Z" fill="#37474F"/>
<path d="M287.798 349.575C288.762 351.757 295.519 356.343 295.519 356.343C295.519 356.343 296.67 348.27 295.702 346.088C295.224 345.063 294.363 344.266 293.303 343.868C292.243 343.471 291.07 343.505 290.034 343.962C288.999 344.42 288.185 345.265 287.767 346.316C287.349 347.367 287.36 348.54 287.798 349.583V349.575Z" fill="#37474F"/>
<path d="M276.125 366.418C277.698 368.21 285.515 370.558 285.515 370.558C285.515 370.558 284.196 362.509 282.619 360.718C282.247 360.281 281.793 359.922 281.281 359.662C280.769 359.402 280.211 359.247 279.639 359.205C279.066 359.163 278.491 359.235 277.947 359.418C277.403 359.6 276.901 359.889 276.47 360.268C276.039 360.646 275.687 361.107 275.436 361.622C275.185 362.138 275.039 362.698 275.007 363.271C274.975 363.843 275.057 364.416 275.249 364.957C275.441 365.497 275.738 365.994 276.125 366.418V366.418Z" fill="#37474F"/>
<path d="M267.024 384.34C268.275 386.375 275.582 390.005 275.582 390.005C275.582 390.005 275.642 381.852 274.387 379.818C274.09 379.335 273.7 378.915 273.241 378.582C272.781 378.249 272.26 378.01 271.708 377.878C271.156 377.746 270.583 377.724 270.023 377.814C269.462 377.903 268.925 378.102 268.441 378.399C267.957 378.696 267.537 379.085 267.204 379.544C266.87 380.004 266.631 380.524 266.499 381.076C266.367 381.627 266.345 382.2 266.435 382.76C266.524 383.32 266.723 383.857 267.02 384.34H267.024Z" fill="#37474F"/>
<path opacity="0.1" d="M149.077 465.996C175.235 465.996 196.441 462.444 196.441 458.062C196.441 453.68 175.235 450.128 149.077 450.128C122.918 450.128 101.713 453.68 101.713 458.062C101.713 462.444 122.918 465.996 149.077 465.996Z" fill="#37474F"/>
<path opacity="0.1" d="M242.303 405.093C268.462 405.093 289.667 401.541 289.667 397.159C289.667 392.778 268.462 389.226 242.303 389.226C216.145 389.226 194.939 392.778 194.939 397.159C194.939 401.541 216.145 405.093 242.303 405.093Z" fill="#37474F"/>
<path d="M245.445 292.451L245.401 293.999L242.708 388.951H238.182L240.401 293.999L240.445 292.212L245.445 292.451Z" fill="#B77B7F"/>
<path d="M271.649 372.887L268.259 372.88L217.883 372.772L215.197 372.768L216.628 368.365H271.291L271.649 372.887Z" fill="#DDA2A6"/>
<path opacity="0.1" d="M245.444 292.451L245.401 293.999H240.4L240.444 292.212L245.444 292.451Z" fill="black"/>
<path d="M247.354 290.13H238.959V293.287H247.354V290.13Z" fill="#B77B7F"/>
<path opacity="0.1" d="M218.329 368.365L217.883 372.772L215.197 372.768L216.628 368.365H218.329Z" fill="black"/>
<path d="M225.56 290.069L225.42 291.439L214.245 401.565L209.125 401.323L220.902 291.439L221.034 290.189L225.56 290.069Z" fill="#DDA2A6"/>
<path opacity="0.1" d="M271.65 372.887L268.259 372.88L267.801 368.365H271.291L271.65 372.887Z" fill="black"/>
<path d="M277.009 401.323L271.885 401.565L260.714 291.439L260.574 290.069L265.096 290.189L265.228 291.439L277.009 401.323Z" fill="#DDA2A6"/>
<path d="M298.798 181.492H185.902V289.652H298.798V181.492Z" fill="white"/>
<path d="M244.553 145.317V171.436H240.15V145.317C240.138 145.021 240.185 144.725 240.29 144.447C240.395 144.169 240.555 143.915 240.761 143.701C240.967 143.486 241.214 143.316 241.487 143.199C241.76 143.083 242.054 143.022 242.352 143.022C242.649 143.022 242.943 143.083 243.216 143.199C243.49 143.316 243.737 143.486 243.942 143.701C244.148 143.915 244.308 144.169 244.413 144.447C244.518 144.725 244.566 145.021 244.553 145.317V145.317Z" fill="#DDA2A6"/>
<path opacity="0.1" d="M244.553 169.06H240.146V171.436H244.553V169.06Z" fill="black"/>
<path d="M246.282 170.842V179.465H238.445V170.842C238.445 170.702 238.472 170.562 238.526 170.432C238.58 170.302 238.658 170.184 238.758 170.084C238.858 169.984 238.976 169.906 239.106 169.852C239.237 169.798 239.376 169.771 239.517 169.771H245.218C245.501 169.774 245.772 169.887 245.971 170.088C246.17 170.289 246.282 170.56 246.282 170.842Z" fill="#DDA2A6"/>
<path opacity="0.1" d="M242.349 176.91C243.269 176.91 244.014 176.165 244.014 175.246C244.014 174.327 243.269 173.582 242.349 173.582C241.429 173.582 240.684 174.327 240.684 175.246C240.684 176.165 241.429 176.91 242.349 176.91Z" fill="black"/>
<path d="M242.349 176.552C243.269 176.552 244.014 175.807 244.014 174.888C244.014 173.969 243.269 173.224 242.349 173.224C241.429 173.224 240.684 173.969 240.684 174.888C240.684 175.807 241.429 176.552 242.349 176.552Z" fill="#B77B7F"/>
<path opacity="0.1" d="M246.283 178.398H238.422V179.469H246.283V178.398Z" fill="black"/>
<path opacity="0.1" d="M249.498 179.828H235.207V182.209H249.498V179.828Z" fill="black"/>
<path d="M249.498 179.111H235.207V181.492H249.498V179.111Z" fill="#DDA2A6"/>
<path opacity="0.1" d="M213.441 286.865H273.463C274.15 286.865 274.809 287.138 275.294 287.623C275.78 288.108 276.053 288.767 276.053 289.453V290.018H210.852V289.453C210.852 288.767 211.124 288.108 211.61 287.623C212.096 287.138 212.754 286.865 213.441 286.865V286.865Z" fill="black"/>
<path opacity="0.1" d="M221.034 290.189L225.56 290.069L225.42 291.439H220.902L221.034 290.189Z" fill="black"/>
<path opacity="0.1" d="M247.354 290.13H238.959V291.44H247.354V290.13Z" fill="black"/>
<path opacity="0.1" d="M265.228 291.439H260.714L260.574 290.069L265.096 290.189L265.228 291.439Z" fill="black"/>
<path d="M213.441 287.57H273.463C274.15 287.57 274.809 287.843 275.294 288.328C275.78 288.813 276.053 289.472 276.053 290.158V290.723H210.852V290.158C210.852 289.472 211.124 288.813 211.61 288.328C212.096 287.843 212.754 287.57 213.441 287.57V287.57Z" fill="#DDA2A6"/>
<path d="M200.281 237.355C199.377 236.877 189.524 229.441 189.524 229.441L173.623 219.366C173.623 219.366 173.539 219.127 173.388 218.717C177.75 213.768 176.798 206.587 172.36 201.539C166.981 195.417 142.678 182.236 135.355 193.51C134.331 195.102 134.295 196.909 134.028 198.661C133.402 202.749 131.386 206.71 128.223 210.046C125.785 212.622 122.585 214.995 121.183 217.909C121.183 217.873 121.155 217.837 121.143 217.797C120.805 218.422 120.559 219.092 120.414 219.787C119.717 223.342 122.107 226.75 123.378 230.209C123.805 231.381 124.114 232.592 124.303 233.824C124.334 233.577 124.362 233.334 124.39 233.088C124.7 234.842 124.806 236.627 124.705 238.406C115.88 240.201 115.876 255.285 115.876 255.285C115.876 255.285 114.788 261.28 114.972 263.442C115.155 265.603 115.151 270.277 115.151 271.403C115.151 272.53 114.063 279.556 113.956 280.4C113.957 280.412 113.957 280.424 113.956 280.436C113.796 281.36 112.143 285.81 116.139 286.805C116.418 286.877 116.713 286.937 117.019 286.992C117.191 290.595 117.502 298.139 117.227 299.819C117.227 299.819 118.681 309.954 119.888 312.53C120.651 314.04 121.545 315.481 122.558 316.837C122.47 317.454 122.261 318.048 121.944 318.585C121.326 319.472 121.645 320.201 122.677 320.515C122.641 320.822 122.601 321.168 122.558 321.558C122.115 325.467 121.454 333.238 122.577 337.175C124.119 342.573 124.211 344.373 124.211 344.373C124.211 344.373 124.211 345.989 124.848 346.889C125.486 347.788 126.661 356.156 126.661 357.505C126.661 358.855 129.745 370.997 128.837 373.875C127.928 376.753 128.657 380.801 128.657 380.801C128.657 380.801 128.111 387.907 127.462 389.436C126.813 390.965 126.554 415.61 127.55 421.995C128.546 428.381 129.183 433.687 129.183 433.687C129.183 433.687 128.55 439.535 129.092 440.343C129.633 441.151 130.633 446.012 129.908 446.279C129.183 446.545 128.821 448.528 128.821 448.528C129.204 449.11 129.618 449.672 130.06 450.212C129.78 450.114 129.507 449.999 129.243 449.865C129.53 450.264 129.96 450.829 130.49 451.458L129.992 457.927C129.971 458.179 130.039 458.431 130.185 458.638C130.331 458.845 130.544 458.995 130.789 459.061C132.38 459.493 134.058 459.486 135.645 459.04C137.232 458.594 138.669 457.727 139.801 456.529C144.335 451.944 145.877 452.572 146.694 449.786C146.781 449.487 146.857 449.193 146.921 448.914C147.506 446.43 144.857 444.583 142.749 445.642C143.04 443.675 143.267 441.442 143.048 440.18C142.594 437.573 142.686 430.737 142.686 430.737L142.052 397.995C142.052 397.995 143.227 391.518 144.59 389.002C145.953 386.486 145.785 377.669 145.785 377.669L147.327 348.704L148.777 334.584C148.777 334.584 150.228 329.727 152.04 335.125C152.04 335.125 151.044 346.005 151.499 348.616C151.953 351.228 152.586 363.907 152.132 366.693C151.678 369.48 149.686 384.774 150.937 388.64C152.188 392.505 153.582 397.191 153.303 398.723C153.025 400.256 152.108 433.44 152.108 433.44C152.108 433.44 154.558 439.81 152.746 441.896C150.933 443.982 152.654 452.246 152.654 452.246C152.654 452.246 152.873 452.401 153.248 452.616L153.196 453.305L152.626 460.745C152.606 460.998 152.674 461.25 152.82 461.458C152.965 461.665 153.178 461.816 153.423 461.884C155.014 462.316 156.692 462.309 158.28 461.863C159.867 461.417 161.303 460.549 162.435 459.352C166.969 454.762 168.511 455.395 169.328 452.604C169.415 452.306 169.491 452.015 169.559 451.733C170.196 449.022 166.969 447.055 164.81 448.826L164.702 448.918C164.589 449.014 164.471 449.103 164.348 449.185C164.29 449.227 164.23 449.265 164.168 449.3C164.623 447.246 165.284 443.727 164.965 442.079C164.511 439.651 165.415 432.278 165.415 432.278C165.415 432.278 168.045 423.46 168.137 419.937L168.862 391.876C168.862 391.876 168.774 380.451 169.137 377.665C169.499 374.878 172.4 350.77 175.3 343.572C177.527 338.063 178.523 324.003 177.934 316.873C177.902 316.522 177.87 316.184 177.83 315.87C181.388 313.246 181.743 308.883 181.743 308.883C181.743 308.883 178.476 302.649 175.332 300.01C172.188 297.371 171.511 292.832 171.623 290.902C171.676 289.725 171.288 288.571 170.535 287.665C170.535 287.665 169.085 282.988 168.117 282.51C168.037 282.47 167.966 282.416 167.905 282.351C167.248 281.646 167.754 279.632 167.754 279.632V279.568C167.87 279.102 168.551 276.085 168.348 275.313C168.105 274.477 168.467 270.516 168.467 270.516C168.467 270.516 170.766 263.68 170.404 258.282C170.041 252.884 175.121 253.366 175.121 253.366L190.807 253.203H192.591C193.221 252.669 193.796 252.074 194.309 251.427C197.297 251.073 203.341 249.947 204.018 246.65C204.938 242.275 201.189 237.837 200.281 237.355ZM127.609 287.259L127.717 284.516C128.088 284.835 128.335 285.038 128.335 285.038C128.535 285.755 128.544 286.513 128.362 287.235C128.265 287.575 128.092 287.888 127.857 288.151C127.622 288.414 127.33 288.621 127.004 288.756C126.928 288.789 126.855 288.827 126.785 288.871L126.633 287.323L127.609 287.259ZM184.504 239.091C183.838 238.792 181.599 238.852 180.448 238.852C179.296 238.852 177.428 237.892 177.428 237.892C177.029 237.116 174.826 236.654 172.866 236.392C171.376 232.721 169.28 229.143 168.997 225.317C168.997 225.178 168.997 225.038 168.977 224.899L169.204 225.297C169.204 225.297 178.336 231.117 179.364 232.861C180.161 234.19 183.998 237.16 185.775 238.49C185.53 238.809 185.187 239.038 184.798 239.142C184.697 239.153 184.595 239.135 184.504 239.091V239.091Z" fill="url(#paint0_linear)"/>
<path d="M169.424 451.757C169.356 452.035 169.284 452.326 169.197 452.62C168.4 455.407 166.874 454.762 162.423 459.312C161.315 460.5 159.902 461.362 158.338 461.806C156.774 462.249 155.119 462.257 153.551 461.828C153.306 461.764 153.092 461.615 152.946 461.408C152.8 461.201 152.732 460.95 152.754 460.698L153.316 453.317L153.583 449.766C153.583 449.766 160.69 451.757 164.308 449.229C164.429 449.146 164.546 449.057 164.659 448.962C164.687 448.937 164.713 448.91 164.738 448.882C165.205 448.496 165.781 448.266 166.386 448.223C166.991 448.18 167.594 448.328 168.11 448.645C168.627 448.962 169.031 449.432 169.267 449.99C169.502 450.548 169.557 451.166 169.424 451.757V451.757Z" fill="#67647E"/>
<path d="M147.111 448.97C147.044 449.248 146.972 449.539 146.884 449.833C146.087 452.62 144.561 451.975 140.111 456.525C139.002 457.713 137.589 458.575 136.025 459.018C134.462 459.462 132.806 459.47 131.238 459.041C130.994 458.976 130.779 458.828 130.634 458.621C130.488 458.414 130.42 458.163 130.441 457.911L131.003 450.53L131.27 446.979C131.27 446.979 138.378 448.97 141.996 446.442C142.117 446.359 142.234 446.27 142.346 446.175C142.374 446.15 142.401 446.123 142.426 446.095C142.893 445.709 143.469 445.479 144.074 445.436C144.678 445.393 145.281 445.541 145.798 445.858C146.314 446.174 146.719 446.645 146.954 447.203C147.19 447.761 147.245 448.379 147.111 448.97V448.97Z" fill="#67647E"/>
<path opacity="0.1" d="M139.769 450.077L140.056 453.914C135.976 457.987 131.12 451.924 129.697 449.934C133.438 451.86 139.769 450.077 139.769 450.077Z" fill="black"/>
<path opacity="0.1" d="M163.749 451.637L164.283 451.283C160.558 456.943 155.024 454.332 153.299 453.317L153.566 449.766C153.566 449.766 160.674 451.756 164.291 449.229C164.008 450.614 163.749 451.637 163.749 451.637Z" fill="black"/>
<path d="M175.098 344.46C172.237 351.598 169.38 375.511 169.022 378.297C168.663 381.084 168.755 392.397 168.755 392.397L168.038 420.22C167.946 423.703 165.356 432.449 165.356 432.449C165.356 432.449 164.464 439.766 164.91 442.174C165.356 444.583 163.751 450.932 163.751 450.932L164.284 450.574C159.818 457.341 152.762 452.27 152.762 452.27C152.762 452.27 151.065 444.061 152.854 442.007C154.643 439.953 152.228 433.619 152.228 433.619C152.228 433.619 153.121 400.69 153.388 399.173C153.655 397.656 152.316 393.014 151.065 389.177C149.814 385.339 151.782 370.168 152.228 367.402C152.675 364.635 152.049 352.051 151.603 349.464C151.157 346.876 152.137 336.076 152.137 336.076C150.352 330.722 148.921 335.543 148.921 335.543L147.491 349.551L145.973 378.289C145.973 378.289 146.152 387.047 144.814 389.535C143.475 392.023 142.312 398.456 142.312 398.456L142.937 430.944C142.937 430.944 142.85 437.712 143.296 440.311C143.742 442.911 142.312 449.594 142.312 449.594C137.312 461.366 129.279 448.603 129.279 448.603C129.279 448.603 129.638 446.641 130.351 446.374C131.064 446.107 130.084 441.286 129.554 440.482C129.024 439.678 129.642 433.878 129.642 433.878C129.642 433.878 129.016 428.615 128.048 422.278C127.08 415.94 127.335 391.49 127.961 389.973C128.586 388.456 129.12 381.406 129.12 381.406C129.12 381.406 128.407 377.39 129.299 374.531C130.192 371.673 127.156 359.631 127.156 358.289C127.156 356.948 125.996 348.652 125.371 347.76C124.745 346.868 124.745 345.26 124.745 345.26C124.745 345.26 124.658 343.477 123.152 338.122C122.044 334.213 122.698 326.506 123.132 322.625C123.287 321.188 123.423 320.272 123.423 320.272C123.423 320.272 174.647 311.972 176.691 313.847C177.169 314.289 177.488 315.806 177.675 317.967C178.285 325.037 177.281 339.01 175.098 344.46Z" fill="#444053"/>
<path opacity="0.1" d="M155.709 384.587C155.948 384.587 161.606 385.065 163.677 384.647C165.749 384.229 155.709 384.587 155.709 384.587Z" fill="black"/>
<path opacity="0.1" d="M156.129 387.919C156.129 387.919 163.942 389.288 164.34 388.576C164.739 387.863 156.129 387.919 156.129 387.919Z" fill="black"/>
<path opacity="0.1" d="M132.252 386.49C132.252 386.49 136.3 386.669 138.503 387.684C140.706 388.7 132.252 386.49 132.252 386.49Z" fill="black"/>
<path d="M117.541 286.423C117.541 286.423 118.194 298.855 117.84 301.057C117.84 301.057 119.266 311.112 120.457 313.668C121.649 316.224 124.211 319.44 124.211 319.44L127.725 294.759L126.888 286.304L117.541 286.423Z" fill="#EFB7B9"/>
<path d="M154.458 229.784C162.054 229.784 168.212 223.631 168.212 216.042C168.212 208.452 162.054 202.3 154.458 202.3C146.863 202.3 140.705 208.452 140.705 216.042C140.705 223.631 146.863 229.784 154.458 229.784Z" fill="#EFB7B9"/>
<path d="M147.315 222.462C147.315 222.462 143.028 230.854 138.741 234.779C134.454 238.704 164.463 243.167 165.176 243.167C165.889 243.167 159.818 225.321 160.889 223.167C161.961 221.013 147.315 222.462 147.315 222.462Z" fill="#EFB7B9"/>
<path opacity="0.1" d="M177.683 317.967C177.01 318.481 176.267 318.897 175.476 319.201C170.002 321.343 164.046 324.317 159.998 323.13C155.95 321.944 147.376 323.13 147.376 323.13C147.376 323.13 130.104 321.701 126.658 322.533C125.088 322.911 123.869 322.896 123.072 322.625C123.228 321.188 123.363 320.272 123.363 320.272C123.363 320.272 174.647 311.972 176.691 313.847C177.177 314.289 177.488 315.806 177.683 317.967Z" fill="black"/>
<path d="M181.432 310.038C181.432 310.038 180.958 315.989 175.475 318.131C169.993 320.272 164.045 323.246 159.997 322.06C155.949 320.874 147.375 322.06 147.375 322.06C147.375 322.06 130.103 320.631 126.657 321.463C123.211 322.295 121.414 321.228 122.486 319.679C123.557 318.131 123.442 313.015 123.442 310.874C123.442 308.732 122.247 300.046 123.318 298.497C124.39 296.949 125.342 291.001 127.486 290.046C127.808 289.91 128.095 289.704 128.327 289.443C128.558 289.182 128.728 288.873 128.824 288.537C129.002 287.821 128.992 287.071 128.797 286.359C128.797 286.359 128.434 286.061 127.936 285.619C126.673 284.492 124.538 282.402 125.223 281.718C126.175 280.762 125.223 274.576 125.223 274.576C125.223 274.576 122.96 269.819 123.796 268.036C124.633 266.252 116.529 256.849 116.529 256.849C116.529 256.849 116.529 240.671 126.295 239.955C126.295 239.955 133.203 240.193 134.036 237.1C134.868 234.007 140.347 232.22 140.347 232.22L152.853 234.959C152.853 234.959 163.925 237.347 165.953 235.91C167.981 234.473 169.539 237.813 169.539 237.813C169.539 237.813 176.443 238.171 177.157 239.6C177.87 241.029 174.898 254.946 174.898 254.946C174.898 254.946 169.893 254.473 170.252 259.827C170.611 265.181 168.324 271.965 168.324 271.965C168.324 271.965 167.965 275.89 168.204 276.722C168.427 277.49 167.734 280.484 167.622 280.945V281.005C167.622 281.005 167.124 282.996 167.77 283.704C167.83 283.768 167.9 283.822 167.977 283.863C168.933 284.337 170.368 288.979 170.368 288.979C171.111 289.88 171.493 291.025 171.439 292.191C171.324 294.098 172.037 298.617 175.133 301.236C178.228 303.855 181.432 310.038 181.432 310.038Z" fill="#A36468"/>
<path d="M128.319 282.483V282.988L128.104 288.561C128.104 288.561 120.777 289.154 116.789 288.163C112.8 287.172 114.478 282.749 114.637 281.834C114.639 281.822 114.639 281.81 114.637 281.798C114.753 280.962 115.832 274.003 115.832 272.873C115.832 271.742 115.832 267.101 115.653 264.959C115.474 262.817 116.53 256.85 116.53 256.85L117.303 255.902L125.693 259.115L128.319 282.483Z" fill="#A36468"/>
<path opacity="0.1" d="M128.299 283L128.084 288.573C128.084 288.573 120.757 289.167 116.769 288.175C112.781 287.184 114.458 282.761 114.618 281.846L128.299 283Z" fill="black"/>
<path opacity="0.1" d="M128.824 288.541C129.001 287.825 128.992 287.075 128.796 286.363C128.796 286.363 128.434 286.065 127.936 285.623C134.243 284.743 159.219 281.32 167.63 280.945V281.005C167.63 281.005 167.132 282.995 167.777 283.704L128.824 288.541Z" fill="black"/>
<path opacity="0.1" d="M168.571 292.832C168.571 292.832 170.121 301.59 164.344 304.671C164.34 304.687 167.619 300.344 168.571 292.832Z" fill="black"/>
<path opacity="0.1" d="M130.762 304.923C130.762 304.923 144.706 302.534 147.436 304.389C150.165 306.244 130.762 304.923 130.762 304.923Z" fill="black"/>
<path opacity="0.1" d="M163.75 250.723C163.75 250.723 161.606 259.528 163.212 261.551C164.817 263.573 163.75 250.723 163.75 250.723Z" fill="black"/>
<path opacity="0.1" d="M123.378 243.525C123.378 243.525 125.342 246.798 124.151 250.189C122.96 253.581 123.378 243.525 123.378 243.525Z" fill="black"/>
<path opacity="0.1" d="M119.318 272.204C119.318 272.204 121.82 273.689 120.988 276.01C120.155 278.331 119.318 272.204 119.318 272.204Z" fill="black"/>
<path opacity="0.1" d="M119.092 265.42C119.092 265.42 121.411 266.67 121.709 268.513C122.008 270.356 119.092 265.42 119.092 265.42Z" fill="black"/>
<path opacity="0.1" d="M153.508 336.574C153.508 336.574 168.098 338.063 171.014 334.611C171.014 334.631 157.855 337.231 153.508 336.574Z" fill="black"/>
<path opacity="0.1" d="M128.318 335.742C128.318 335.742 143.98 339.432 147.076 336.514C147.076 336.514 133.617 337.526 128.318 335.742Z" fill="black"/>
<path opacity="0.1" d="M154.639 341.399C154.639 341.399 161.189 341.399 164.225 341.579C167.261 341.758 154.639 341.399 154.639 341.399Z" fill="black"/>
<path opacity="0.1" d="M129.391 344.186C129.391 344.186 132.606 347.816 136.239 347.163C139.873 346.51 129.391 344.186 129.391 344.186Z" fill="black"/>
<path d="M135.704 195.56C134.696 197.125 134.66 198.936 134.397 200.672C133.784 204.728 131.796 208.657 128.684 211.969C125.827 215.003 121.911 217.754 121.17 221.46C120.469 224.979 122.847 228.367 124.094 231.81C127.381 240.843 122.791 250.317 121.453 259.64C121.082 262.216 121.528 265.508 124.704 266.364C125.696 266.635 126.831 266.599 127.724 267.029C128.919 267.602 129.286 268.792 129.505 269.863C130.304 273.694 130.58 277.615 130.325 281.519C130.182 283.709 130.023 286.228 132.094 287.733C133.035 288.422 134.302 288.772 135.525 289.103C138.788 289.982 143.007 290.695 145.206 288.629C146.131 287.765 146.477 286.547 147.629 285.862C149.354 284.839 151.8 285.532 153.972 285.639C158.43 285.862 162.526 283.251 164.283 280.102C166.04 276.953 165.876 273.334 165.239 269.939C164.601 266.543 163.462 263.171 163.382 259.724C163.354 258.53 163.462 257.315 164.147 256.256C165.474 254.206 168.562 253.275 170.673 251.663C174.63 248.637 174.618 243.681 173.179 239.533C171.741 235.385 169.159 231.408 168.841 227.121C168.698 226.084 168.904 225.03 169.426 224.123C169.992 223.251 170.98 222.598 171.817 221.878C177.59 217.005 176.909 209.004 172.135 203.526C166.852 197.455 142.915 184.378 135.704 195.56Z" fill="#E3787D"/>
<g opacity="0.1">
<path opacity="0.1" d="M124.829 235.559C125.279 231.94 125.195 228.353 123.916 224.83C123.287 223.103 122.375 221.387 121.709 219.655C121.377 220.281 121.135 220.952 120.992 221.646C120.291 225.165 122.669 228.553 123.916 231.996C124.336 233.151 124.642 234.344 124.829 235.559Z" fill="black"/>
<path opacity="0.1" d="M130.147 274.54C130.401 270.636 130.126 266.715 129.33 262.884C129.107 261.813 128.74 260.627 127.545 260.054C126.653 259.624 125.517 259.656 124.525 259.389C123.916 259.243 123.347 258.96 122.864 258.561C122.381 258.162 121.995 257.658 121.736 257.088C121.553 257.996 121.394 258.899 121.262 259.807C120.891 262.382 121.338 265.675 124.513 266.53C125.505 266.797 126.641 266.761 127.533 267.191C128.728 267.765 129.095 268.955 129.318 270.026C129.684 271.802 129.939 273.6 130.083 275.408C130.111 275.113 130.127 274.827 130.147 274.54Z" fill="black"/>
<path opacity="0.1" d="M164.109 273.127C162.348 276.288 158.252 278.887 153.794 278.664C151.623 278.553 149.176 277.868 147.455 278.887C146.304 279.568 145.953 280.79 145.029 281.654C142.83 283.704 138.61 283.007 135.347 282.127C134.124 281.793 132.861 281.447 131.917 280.758C131.017 280.097 130.41 279.112 130.224 278.011C130.247 279.233 130.224 280.46 130.148 281.682C130.004 283.871 129.845 286.391 131.917 287.9C132.861 288.584 134.124 288.935 135.347 289.265C138.61 290.145 142.83 290.858 145.029 288.791C145.953 287.928 146.304 286.709 147.455 286.005C149.176 284.982 151.623 285.674 153.794 285.782C158.252 286.005 162.348 283.393 164.109 280.245C165.798 277.203 165.723 273.764 165.133 270.479C164.911 271.403 164.567 272.294 164.109 273.127Z" fill="black"/>
<path opacity="0.1" d="M171.655 214.918C170.802 215.635 169.814 216.292 169.264 217.164C168.742 218.071 168.536 219.125 168.679 220.161C168.794 221.464 169.07 222.747 169.499 223.983C170.163 223.276 170.89 222.631 171.671 222.056C175.575 218.764 176.523 214.039 175.256 209.628C174.588 211.7 173.338 213.536 171.655 214.918V214.918Z" fill="black"/>
<path opacity="0.1" d="M170.496 244.683C168.389 246.295 165.297 247.231 163.974 249.281C163.285 250.34 163.177 251.562 163.205 252.744C163.254 254.137 163.425 255.522 163.715 256.885C163.79 256.724 163.877 256.568 163.974 256.419C165.297 254.369 168.389 253.437 170.496 251.825C174.11 249.062 174.413 244.691 173.345 240.794C172.803 242.344 171.811 243.698 170.496 244.683V244.683Z" fill="black"/>
</g>
<path d="M192.149 253.164C192.149 253.164 202.452 252.63 203.344 248.287C204.237 243.944 200.555 239.529 199.655 239.063C198.754 238.598 189.041 231.209 189.041 231.209L173.383 221.217C173.383 221.217 165.881 199.72 164.219 207.949C162.558 216.177 169.044 227.105 169.044 227.105C169.044 227.105 178.033 232.877 179.045 234.601C180.057 236.324 186.252 240.847 186.252 240.847L192.149 253.164Z" fill="#EFB7B9"/>
<path d="M197.688 246.141C195.25 252.332 192.09 254.772 192.09 254.772H190.333L174.886 254.931L173.105 250.07L175.608 239.537L177.153 239.601C177.153 239.601 179.002 240.552 180.13 240.552C181.257 240.552 183.468 240.493 184.114 240.787C184.204 240.831 184.305 240.846 184.405 240.831C184.99 240.771 185.6 239.895 185.6 239.895C185.6 239.895 200.13 239.955 197.688 246.141Z" fill="#A36468"/>
<path opacity="0.1" d="M197.688 246.141C195.25 252.331 192.09 254.771 192.09 254.771H190.333C191.25 252.319 193.182 247.287 193.919 246.125C194.64 245.026 188.17 242.291 184.385 240.814C184.97 240.755 185.58 239.879 185.58 239.879C185.58 239.879 200.13 239.955 197.688 246.141Z" fill="black"/>
<path opacity="0.1" d="M36.1842 441.235C45.9055 441.235 53.7863 439.695 53.7863 437.796C53.7863 435.896 45.9055 434.356 36.1842 434.356C26.4628 434.356 18.582 435.896 18.582 437.796C18.582 439.695 26.4628 441.235 36.1842 441.235Z" fill="#37474F"/>
<path opacity="0.1" d="M329.604 417.612C336.685 417.612 342.425 416.491 342.425 415.108C342.425 413.726 336.685 412.604 329.604 412.604C322.523 412.604 316.783 413.726 316.783 415.108C316.783 416.491 322.523 417.612 329.604 417.612Z" fill="#37474F"/>
<path opacity="0.1" d="M385.179 427.76C392.259 427.76 398 426.639 398 425.256C398 423.873 392.259 422.752 385.179 422.752C378.098 422.752 372.357 423.873 372.357 425.256C372.357 426.639 378.098 427.76 385.179 427.76Z" fill="#37474F"/>
<path opacity="0.1" d="M299.124 448.659C306.205 448.659 311.945 447.538 311.945 446.155C311.945 444.772 306.205 443.651 299.124 443.651C292.043 443.651 286.303 444.772 286.303 446.155C286.303 447.538 292.043 448.659 299.124 448.659Z" fill="#37474F"/>
<path d="M52.8178 342.318C52.8178 342.318 55.7024 346.088 51.4871 351.773C47.2719 357.458 43.8016 362.259 45.212 365.805C45.212 365.805 51.5668 355.244 56.7423 355.097C61.9177 354.95 58.5112 348.672 52.8178 342.318Z" fill="#37474F"/>
<path opacity="0.1" d="M52.8179 342.318C53.0703 342.686 53.2688 343.089 53.4076 343.513C58.4555 349.44 61.1449 354.97 56.2921 355.109C51.774 355.236 46.3516 363.313 45.0527 365.352C45.0943 365.51 45.1462 365.666 45.2081 365.817C45.2081 365.817 51.5629 355.256 56.7383 355.109C61.9138 354.962 58.5113 348.672 52.8179 342.318Z" fill="black"/>
<path d="M58.1771 347.119C58.1771 348.445 58.0297 349.508 57.8464 349.508C57.6631 349.508 57.5117 348.433 57.5117 347.119C57.5117 345.806 57.699 346.419 57.8823 346.419C58.0655 346.419 58.1771 345.778 58.1771 347.119Z" fill="#FFD037"/>
<path d="M60.0171 348.704C58.8538 349.337 57.8378 349.723 57.7501 349.56C57.6625 349.396 58.547 348.764 59.6984 348.119C60.8498 347.474 60.4036 347.947 60.4952 348.119C60.5869 348.29 61.1805 348.067 60.0171 348.704Z" fill="#FFD037"/>
<path d="M37.5949 342.318C37.5949 342.318 34.7104 346.088 38.9256 351.773C43.1409 357.458 46.6111 362.259 45.2127 365.805C45.2127 365.805 38.838 355.244 33.6586 355.097C28.4791 354.95 31.9015 348.672 37.5949 342.318Z" fill="#37474F"/>
<path opacity="0.1" d="M37.5959 342.318C37.3435 342.686 37.1449 343.089 37.0062 343.513C31.9582 349.44 29.2689 354.97 34.1217 355.109C38.6397 355.236 44.0821 363.313 45.361 365.352C45.319 365.509 45.2685 365.665 45.2096 365.817C45.2096 365.817 38.8349 355.256 33.6555 355.109C28.4761 354.962 31.9025 348.672 37.5959 342.318Z" fill="black"/>
<path d="M32.2363 347.119C32.2363 348.445 32.3837 349.508 32.567 349.508C32.7503 349.508 32.9017 348.433 32.9017 347.119C32.9017 345.806 32.7144 346.419 32.5312 346.419C32.3479 346.419 32.2363 345.778 32.2363 347.119Z" fill="#FFD037"/>
<path d="M30.3962 348.704C31.5636 349.337 32.5755 349.723 32.6672 349.56C32.7588 349.396 31.8703 348.764 30.7149 348.119C29.5595 347.474 30.0097 347.947 29.9181 348.119C29.8265 348.29 29.2328 348.067 30.3962 348.704Z" fill="#FFD037"/>
<path opacity="0.1" d="M45.2048 394.62C61.8508 394.62 75.3451 392.55 75.3451 389.998C75.3451 387.445 61.8508 385.376 45.2048 385.376C28.5587 385.376 15.0645 387.445 15.0645 389.998C15.0645 392.55 28.5587 394.62 45.2048 394.62Z" fill="#37474F"/>
<path d="M60.7182 360.73L60.5748 361.925L60.3716 363.585L60.2879 364.277L60.0847 365.941L59.9971 366.634L59.7939 368.294L57.491 387.179C57.2839 388.867 54.5268 390.181 51.196 390.181H39.2355C35.9047 390.181 33.1517 388.867 32.9445 387.179L30.6377 368.29L30.4345 366.63L30.3508 365.937L30.1436 364.273L30.0599 363.581L29.8568 361.921L29.7133 360.726C29.5978 359.771 31.0879 358.967 32.9724 358.967H57.4831C59.3437 358.971 60.8378 359.775 60.7182 360.73Z" fill="#65617D"/>
<path d="M60.5719 361.904L60.3727 363.568H30.0371L29.8379 361.904H60.5719Z" fill="#9D9CB5"/>
<path d="M60.2853 364.261L60.0861 365.921H30.3282L30.125 364.261H60.2853Z" fill="#9D9CB5"/>
<path d="M59.9986 366.613L59.7955 368.273H30.6153L30.4121 366.613H59.9986Z" fill="#9D9CB5"/>
<path opacity="0.1" d="M71.7123 196.11C78.6436 196.11 84.2625 190.495 84.2625 183.57C84.2625 176.644 78.6436 171.03 71.7123 171.03C64.781 171.03 59.1621 176.644 59.1621 183.57C59.1621 190.495 64.781 196.11 71.7123 196.11Z" fill="#37474F"/>
<path opacity="0.1" d="M45.4156 161.476C49.7064 161.476 53.1848 158 53.1848 153.713C53.1848 149.426 49.7064 145.95 45.4156 145.95C41.1249 145.95 37.6465 149.426 37.6465 153.713C37.6465 158 41.1249 161.476 45.4156 161.476Z" fill="#37474F"/>
<path opacity="0.1" d="M4.78102 175.807C7.4215 175.807 9.56204 173.668 9.56204 171.03C9.56204 168.392 7.4215 166.253 4.78102 166.253C2.14054 166.253 0 168.392 0 171.03C0 173.668 2.14054 175.807 4.78102 175.807Z" fill="#37474F"/>
</g>
<defs>
<linearGradient id="paint0_linear" x1="158.818" y1="462.186" x2="158.818" y2="189.099" gradientUnits="userSpaceOnUse">
<stop stop-color="#808080" stop-opacity="0.25"/>
<stop offset="0.54" stop-color="#808080" stop-opacity="0.12"/>
<stop offset="1" stop-color="#808080" stop-opacity="0.1"/>
</linearGradient>
<clipPath id="clip0">
<rect width="398" height="332" fill="white" transform="translate(0 134)"/>
</clipPath>
</defs>
</svg>
